<svg width="28" height="32" viewBox="0 0 28 32" fill="none" xmlns="http://www.w3.org/2000/svg">
<path d="M13.6243 31.5551C21.1407 31.5551 27.2547 25.3692 27.2547 17.7705C27.2547 11.0564 22.4036 6.98982 14.2436 6.7994C14.3043 5.53397 14.6322 2.59767 16.4293 2.37038C16.7572 2.32738 16.9939 2.02024 16.9514 1.68239C16.915 1.35065 16.6114 1.11111 16.2775 1.15411C15.1684 1.29313 14.4398 1.97577 13.9559 2.83968C11.7573 0.368744 9.77862 0.761783 8.16 1.09266C7.0975 1.30153 6.18679 1.49196 5.25788 0.951385C5.02108 0.816223 4.72359 0.859228 4.5293 1.0558C4.33501 1.24623 4.29858 1.55337 4.43214 1.79295C5.78001 4.18868 7.44358 5.57694 9.36821 5.92094C9.69001 5.98239 10.0118 6.00694 10.3154 6.00694C11.4404 6.00694 12.4313 5.66193 13.1672 5.2969C13.0744 5.88134 13.0371 6.41367 13.0232 6.7994C4.85714 6.98368 0 11.0564 0 17.7705C0 25.3692 6.10786 31.5551 13.6243 31.5551ZM21.3109 12.3893C21.5475 12.1619 21.9483 12.1619 22.173 12.3893C22.288 12.5059 22.3491 12.6658 22.3491 12.8254C22.3491 12.9913 22.288 13.1448 22.173 13.2615C22.0633 13.3722 21.9056 13.4397 21.7419 13.4397C21.5836 13.4397 21.4259 13.3722 21.3109 13.2615C21.2012 13.1448 21.1348 12.9853 21.1348 12.8254C21.1348 12.6658 21.2012 12.5059 21.3109 12.3893ZM21.3109 16.2532C21.5415 16.0198 21.9483 16.0258 22.173 16.2532C22.288 16.3698 22.3491 16.5234 22.3491 16.6893C22.3491 16.8491 22.288 17.0087 22.173 17.1254C22.0633 17.2361 21.9056 17.3036 21.7419 17.3036C21.5836 17.3036 21.4259 17.2361 21.3109 17.1194C21.2012 17.0087 21.1348 16.8491 21.1348 16.6893C21.1348 16.5297 21.2012 16.3698 21.3109 16.2532ZM19.1734 15.2456C19.2891 15.3563 19.3495 15.5159 19.3495 15.6758C19.3495 15.8353 19.2891 15.9952 19.1734 16.1119C19.0578 16.2226 18.906 16.29 18.7424 16.29C18.5847 16.29 18.427 16.2226 18.3173 16.1119C18.2022 15.9952 18.1352 15.8353 18.1352 15.6758C18.1352 15.5159 18.2022 15.3563 18.3173 15.2396C18.5361 15.0183 18.9487 15.0123 19.1734 15.2456ZM17.4979 11.2897C17.7226 11.0563 18.1293 11.0563 18.354 11.2897C18.4691 11.4004 18.5301 11.5599 18.5301 11.7198C18.5301 11.8857 18.4691 12.0452 18.354 12.1559C18.2443 12.2726 18.0866 12.3341 17.9289 12.3341C17.7647 12.3341 17.6129 12.2726 17.4979 12.1559C17.3822 12.0452 17.3218 11.8857 17.3218 11.7198C17.3218 11.5599 17.3822 11.4004 17.4979 11.2897ZM14.5594 14.14C14.7841 13.9127 15.1968 13.9127 15.415 14.14C15.5306 14.2504 15.5911 14.4103 15.5911 14.5699C15.5911 14.7357 15.5306 14.8956 15.415 15.0063C15.3059 15.123 15.1481 15.1841 14.9839 15.1841C14.8262 15.1841 14.6685 15.123 14.5594 15.0063C14.4438 14.8956 14.3833 14.7357 14.3833 14.5699C14.3833 14.4103 14.4438 14.2504 14.5594 14.14Z" fill="#F8765E"/>
</svg>
